<mxfile host="app.diagrams.net" agent="Mozilla/5.0 (X11; Linux x86_64) AppleWebKit/537.36 (KHTML, like Gecko) Chrome/129.0.0.0 Safari/537.36" version="24.7.17">
  <diagram name="Page-1" id="N6HJv_uzp-hAdjSNtdMb">
    <mxGraphModel>
      <root>
        <mxCell id="0" />
        <mxCell id="1" parent="0" />
        <mxCell id="2" value="Patients" style="whiteSpace=wrap;strokeWidth=2;verticalAlign=top;" vertex="1" parent="1">
          <mxGeometry x="68" y="8" width="762" height="493" as="geometry" />
        </mxCell>
        <mxCell id="3" value="Patient logs in" style="whiteSpace=wrap;strokeWidth=2;" vertex="1" parent="2">
          <mxGeometry x="308" y="46" width="161" height="48" as="geometry" />
        </mxCell>
        <mxCell id="4" value="View Personal Info" style="whiteSpace=wrap;strokeWidth=2;" vertex="1" parent="2">
          <mxGeometry x="43" y="292" width="193" height="48" as="geometry" />
        </mxCell>
        <mxCell id="5" value="View Medical History" style="whiteSpace=wrap;strokeWidth=2;" vertex="1" parent="2">
          <mxGeometry x="403" y="169" width="208" height="48" as="geometry" />
        </mxCell>
        <mxCell id="6" value="View Lab Results" style="whiteSpace=wrap;strokeWidth=2;" vertex="1" parent="2">
          <mxGeometry x="286" y="292" width="184" height="48" as="geometry" />
        </mxCell>
        <mxCell id="7" value="View Treatment Plans" style="whiteSpace=wrap;strokeWidth=2;" vertex="1" parent="2">
          <mxGeometry x="520" y="292" width="216" height="48" as="geometry" />
        </mxCell>
        <mxCell id="8" value="Update Personal Info" style="whiteSpace=wrap;strokeWidth=2;" vertex="1" parent="2">
          <mxGeometry x="273" y="415" width="210" height="48" as="geometry" />
        </mxCell>
        <mxCell id="9" value="" style="curved=1;startArrow=none;endArrow=block;exitX=0;exitY=0.91;entryX=0.5;entryY=0;" edge="1" parent="2" source="3" target="4">
          <mxGeometry relative="1" as="geometry">
            <Array as="points">
              <mxPoint x="140" y="131" />
            </Array>
          </mxGeometry>
        </mxCell>
        <mxCell id="10" value="" style="curved=1;startArrow=none;endArrow=block;exitX=0.79;exitY=1;entryX=0.5;entryY=0;" edge="1" parent="2" source="3" target="5">
          <mxGeometry relative="1" as="geometry">
            <Array as="points">
              <mxPoint x="507" y="131" />
            </Array>
          </mxGeometry>
        </mxCell>
        <mxCell id="11" value="" style="curved=1;startArrow=none;endArrow=block;exitX=0.26;exitY=1;entryX=0.5;entryY=0;" edge="1" parent="2" source="5" target="6">
          <mxGeometry relative="1" as="geometry">
            <Array as="points">
              <mxPoint x="378" y="255" />
            </Array>
          </mxGeometry>
        </mxCell>
        <mxCell id="12" value="" style="curved=1;startArrow=none;endArrow=block;exitX=0.73;exitY=1;entryX=0.5;entryY=0;" edge="1" parent="2" source="5" target="7">
          <mxGeometry relative="1" as="geometry">
            <Array as="points">
              <mxPoint x="628" y="255" />
            </Array>
          </mxGeometry>
        </mxCell>
        <mxCell id="13" value="" style="curved=1;startArrow=none;endArrow=block;exitX=0.5;exitY=1.01;entryX=0.06;entryY=0.01;" edge="1" parent="2" source="4" target="8">
          <mxGeometry relative="1" as="geometry">
            <Array as="points">
              <mxPoint x="140" y="378" />
            </Array>
          </mxGeometry>
        </mxCell>
        <mxCell id="14" value="" style="curved=1;startArrow=none;endArrow=block;exitX=0.5;exitY=1.01;entryX=0.5;entryY=0.01;" edge="1" parent="2" source="6" target="8">
          <mxGeometry relative="1" as="geometry">
            <Array as="points" />
          </mxGeometry>
        </mxCell>
        <mxCell id="15" value="" style="curved=1;startArrow=none;endArrow=block;exitX=0.5;exitY=1.01;entryX=0.97;entryY=0.01;" edge="1" parent="2" source="7" target="8">
          <mxGeometry relative="1" as="geometry">
            <Array as="points">
              <mxPoint x="628" y="378" />
            </Array>
          </mxGeometry>
        </mxCell>
        <mxCell id="16" value="Staff" style="whiteSpace=wrap;strokeWidth=2;verticalAlign=top;" vertex="1" parent="1">
          <mxGeometry x="8" y="551" width="882" height="588" as="geometry" />
        </mxCell>
        <mxCell id="17" value="Staff logs in" style="whiteSpace=wrap;strokeWidth=2;" vertex="1" parent="16">
          <mxGeometry x="195" y="501" width="143" height="48" as="geometry" />
        </mxCell>
        <mxCell id="18" value="Admin?" style="rhombus;strokeWidth=2;whiteSpace=wrap;" vertex="1" parent="16">
          <mxGeometry x="204" y="46" width="103" height="103" as="geometry" />
        </mxCell>
        <mxCell id="19" value="Access Admin panel" style="whiteSpace=wrap;strokeWidth=2;" vertex="1" parent="16">
          <mxGeometry x="43" y="246" width="204" height="48" as="geometry" />
        </mxCell>
        <mxCell id="20" value="Access Staff panel" style="whiteSpace=wrap;strokeWidth=2;" vertex="1" parent="16">
          <mxGeometry x="297" y="246" width="192" height="48" as="geometry" />
        </mxCell>
        <mxCell id="21" value="View Patient List" style="whiteSpace=wrap;strokeWidth=2;" vertex="1" parent="16">
          <mxGeometry x="57" y="369" width="178" height="48" as="geometry" />
        </mxCell>
        <mxCell id="22" value="Search for Patient" style="whiteSpace=wrap;strokeWidth=2;" vertex="1" parent="16">
          <mxGeometry x="285" y="369" width="188" height="48" as="geometry" />
        </mxCell>
        <mxCell id="23" value="View Patient Details" style="whiteSpace=wrap;strokeWidth=2;" vertex="1" parent="16">
          <mxGeometry x="523" y="369" width="202" height="48" as="geometry" />
        </mxCell>
        <mxCell id="24" value="Edit Patient Details" style="whiteSpace=wrap;strokeWidth=2;" vertex="1" parent="16">
          <mxGeometry x="389" y="501" width="195" height="48" as="geometry" />
        </mxCell>
        <mxCell id="25" value="View Patient Medical Records" style="whiteSpace=wrap;strokeWidth=2;" vertex="1" parent="16">
          <mxGeometry x="646" y="492" width="208" height="66" as="geometry" />
        </mxCell>
        <mxCell id="26" value="Yes" style="curved=1;startArrow=none;endArrow=block;exitX=0;exitY=0.95;entryX=0.5;entryY=-0.01;" edge="1" parent="16" source="18" target="19">
          <mxGeometry relative="1" as="geometry">
            <Array as="points">
              <mxPoint x="145" y="197" />
            </Array>
          </mxGeometry>
        </mxCell>
        <mxCell id="27" value="No" style="curved=1;startArrow=none;endArrow=block;exitX=1;exitY=0.86;entryX=0.5;entryY=-0.01;" edge="1" parent="16" source="18" target="20">
          <mxGeometry relative="1" as="geometry">
            <Array as="points">
              <mxPoint x="393" y="197" />
            </Array>
          </mxGeometry>
        </mxCell>
        <mxCell id="28" value="" style="curved=1;startArrow=none;endArrow=block;exitX=0;exitY=0.99;entryX=0.5;entryY=0;" edge="1" parent="16" source="20" target="21">
          <mxGeometry relative="1" as="geometry">
            <Array as="points">
              <mxPoint x="146" y="331" />
            </Array>
          </mxGeometry>
        </mxCell>
        <mxCell id="29" value="" style="curved=1;startArrow=none;endArrow=block;exitX=0.47;exitY=1;entryX=0.5;entryY=0;" edge="1" parent="16" source="20" target="22">
          <mxGeometry relative="1" as="geometry">
            <Array as="points">
              <mxPoint x="379" y="331" />
            </Array>
          </mxGeometry>
        </mxCell>
        <mxCell id="30" value="" style="curved=1;startArrow=none;endArrow=block;exitX=0.97;exitY=1;entryX=0.5;entryY=0;" edge="1" parent="16" source="20" target="23">
          <mxGeometry relative="1" as="geometry">
            <Array as="points">
              <mxPoint x="624" y="331" />
            </Array>
          </mxGeometry>
        </mxCell>
        <mxCell id="31" value="" style="curved=1;startArrow=none;endArrow=block;exitX=0.23;exitY=1;entryX=0.5;entryY=0;" edge="1" parent="16" source="23" target="24">
          <mxGeometry relative="1" as="geometry">
            <Array as="points">
              <mxPoint x="486" y="455" />
            </Array>
          </mxGeometry>
        </mxCell>
        <mxCell id="32" value="" style="curved=1;startArrow=none;endArrow=block;exitX=0.75;exitY=1;entryX=0.5;entryY=0;" edge="1" parent="16" source="23" target="25">
          <mxGeometry relative="1" as="geometry">
            <Array as="points">
              <mxPoint x="750" y="455" />
            </Array>
          </mxGeometry>
        </mxCell>
      </root>
    </mxGraphModel>
  </diagram>
</mxfile>
